# xmcd
#
# Track frame offsets: 
#        150
#        17739
#        48546
#        62290
#        77335
#        87091
#        102761
#        112431
#        136207
#        151221
#        166590
#        182307
#        204882
#
# Disc length: 3528 seconds
#
# Revision: 3
# Processed by: cddbd v1.5.2PL0 Copyright (c) Steve Scherf et al.
# Submitted via: ExactAudioCopy v0.99pb5
#
DISCID=8f0dc60d
DTITLE=Amy Winehouse - Frank
DYEAR=2003
DGENRE=Soul and R&B
TTITLE0=Intro - Stronger Than Me
TTITLE1=You Sent Me Flying - Cherry
TTITLE2=Know You Now
TTITLE3=Fuck Me Pumps
TTITLE4=I Heard Love Is Blind
TTITLE5=Moody's Mood For Love
TTITLE6=(There Is) No Greater Love
TTITLE7=In My Bed
TTITLE8=Take The Box
TTITLE9=October Song
TTITLE10=What Is It About Men
TTITLE11=Help Yourself
TTITLE12=Amy Amy Amy - Outro
EXTD=
EXTT0=
EXTT1=
EXTT2=
EXTT3=
EXTT4=
EXTT5=
EXTT6=
EXTT7=
EXTT8=
EXTT9=
EXTT10=
EXTT11=
EXTT12=
PLAYORDER=
